# xmcd CD database file
#
# Track frame offsets:
#	150
#	28955
#	56815
#	97020
#	123220
#	153337
#	176375
#	210590
#
# Disc length: 2925 seconds
#
# Revision: 0
# Processed by: cddbd v1.5.2PL0 Copyright (c) Steve Scherf et al.
# Submitted via: CDex 1.51
#
DISCID=680b6b08
DTITLE=Hans Olding - No space
DYEAR=2008
DGENRE=Jazz
TTITLE0=Chez gladines
TTITLE1=New directions
TTITLE2=Three/four
TTITLE3=Generation why ?
TTITLE4=No space
TTITLE5=Waiting for G
TTITLE6=Just don´t
TTITLE7=Departure (for Andrew Hill)
EXTD=YEAR: 2008
EXTT0=
EXTT1=
EXTT2=
EXTT3=
EXTT4=
EXTT5=
EXTT6=
EXTT7=
PLAYORDER=
